# xmcd
#
# Track frame offsets:
#	150
#	14288
#	29300
#	43704
#	58563
#	73330
#	87781
#	101365
#	115813
#	129393
#
# Disc length: 1903 seconds
#
# Revision: 0
# Processed by: cddbd v1.5.2PL0 Copyright (c) Steve Scherf et al.
# Submitted via: EasyCDDAExtractor 16.0.6.1
#
DISCID=7d076d0a
DTITLE=Συλλογικός δίσκος - Ιστορία ρεμπέτικου και λαϊκού 03-5
DYEAR=2007
DGENRE=Ποικίλη
TTITLE0=Βαμβακάρης Μάρκος-Χατζηχρήστος Απόστολος - Τα δυό σου χέρια πήρανε [Μ.
TTITLE0=Βαμβακάρης]
TTITLE1=Βαμβακάρης Μάρκος-Χατζηχρήστος Απόστολος - Ο Αντώνης ο βαρκάρης [Σπ. Π
TTITLE1=εριστέρης-Μ. Μάτσας]
TTITLE2=Παγιουμτζής Στράτος - Γυρνώ σαν νυχτερίδα [Δημ. Γκόγκος]
TTITLE3=Χατζηχρήστος Απόστολος - Παλιόπαιδο [Απ. Χατζηχρήστος]
TTITLE4=Παγιουμτζής Στράτος-Τσιτσάνης Βασίλης - Μάγισσα της Αραπιάς [Β. Τσιτσά
TTITLE4=νης]
TTITLE5=Παγιουμτζής Στράτος-Καλλέλη Νότα - Το μινόρε της ταβέρνας [Παν. Τούντα
TTITLE5=ς]
TTITLE6=Κάβουρας Γιώργος - Μιά βαρκούλα θα ναυλώσω [Μαν. Χρυσαφάκης]
TTITLE7=Εσκενάζυ Ρόζα - Η κατάρα του χαρτοπαίχτη [Σπ. Περιστέρης]
TTITLE8=Κάβουρας Γιώργος - Ο ζωντανός ο χωρισμός [Στ.Κηρομύτης-Γ.Πετροπουλέας]
TTITLE9=Παγιουμτζής Στράτος-Τσιτσάνης Βασίλης - Καλαμπακιώτισσα (Στην Καλαμπάκ
TTITLE9=α βραδιά)[Β.Τσιτσάνης]
EXTD=
EXTT0=
EXTT1=
EXTT2=
EXTT3=
EXTT4=
EXTT5=
EXTT6=
EXTT7=
EXTT8=
EXTT9=
PLAYORDER=
